<?xml version="1.0" encoding="UTF-8" standalone="no"?>
<!-- Created with Inkscape (http://www.inkscape.org/) -->

<svg
   xmlns:dc="http://purl.org/dc/elements/1.1/"
   xmlns:cc="http://creativecommons.org/ns#"
   xmlns:rdf="http://www.w3.org/1999/02/22-rdf-syntax-ns#"
   xmlns:svg="http://www.w3.org/2000/svg"
   xmlns="http://www.w3.org/2000/svg"
   xmlns:sodipodi="http://sodipodi.sourceforge.net/DTD/sodipodi-0.dtd"
   xmlns:inkscape="http://www.inkscape.org/namespaces/inkscape"
   width="687.09961"
   height="325.12601"
   id="svg2"
   version="1.1"
   inkscape:version="0.47 r22583"
   sodipodi:docname="ANTARES-Logo.svg"
   inkscape:export-filename="H:\Dokumente\ANTARES Logos\final\ANTARES-Logo_LO-res.png"
   inkscape:export-xdpi="150.03413"
   inkscape:export-ydpi="150.03413">
  <defs
     id="defs4">
    <inkscape:perspective
       sodipodi:type="inkscape:persp3d"
       inkscape:vp_x="0 : 526.18109 : 1"
       inkscape:vp_y="0 : 1000 : 0"
       inkscape:vp_z="744.09448 : 526.18109 : 1"
       inkscape:persp3d-origin="372.04724 : 350.78739 : 1"
       id="perspective10" />
    <inkscape:perspective
       id="perspective2824"
       inkscape:persp3d-origin="0.5 : 0.33333333 : 1"
       inkscape:vp_z="1 : 0.5 : 1"
       inkscape:vp_y="0 : 1000 : 0"
       inkscape:vp_x="0 : 0.5 : 1"
       sodipodi:type="inkscape:persp3d" />
  </defs>
  <sodipodi:namedview
     id="base"
     pagecolor="#ffffff"
     bordercolor="#666666"
     borderopacity="1.0"
     inkscape:pageopacity="0.0"
     inkscape:pageshadow="2"
     inkscape:zoom="2.171795"
     inkscape:cx="328.36868"
     inkscape:cy="166.28476"
     inkscape:document-units="px"
     inkscape:current-layer="layer1"
     showgrid="false"
     inkscape:window-width="1680"
     inkscape:window-height="978"
     inkscape:window-x="-4"
     inkscape:window-y="-4"
     inkscape:window-maximized="1"
     units="cm" />
  <metadata
     id="metadata7">
    <rdf:RDF>
      <cc:Work
         rdf:about="">
        <dc:format>image/svg+xml</dc:format>
        <dc:type
           rdf:resource="http://purl.org/dc/dcmitype/StillImage" />
        <dc:title></dc:title>
      </cc:Work>
    </rdf:RDF>
  </metadata>
  <g
     inkscape:label="Ebene 1"
     inkscape:groupmode="layer"
     id="layer1"
     transform="translate(-1294.964,-413.94203)">
    <g
       id="g3087"
       transform="translate(1131.3709,0)">
      <g
         id="g3005"
         transform="translate(0,14)">
        <path
           d="m 577.05263,642.66353 -50.605,-2.0615 -16.93,-49.855 -17.93125,50.8545 -50.605,2.0615 40.61,28.48875 -16.86875,49.79251 44.795,-30.48776 43.795,30.48776 -16.36875,-49.29301 40.10875,-29.98775"
           style="fill:#fe9900;fill-opacity:1;stroke:none"
           id="path3007" />
        <path
           d="m 577.05263,642.66353 -40.10875,29.98775 16.36875,49.29301 -43.795,-30.48776 -44.795,30.48776 16.86875,-49.79251 -40.61,-28.48875 50.605,-2.0615 17.93125,-50.8545 16.93,49.855 50.605,2.0615 z"
           style="fill:none;stroke:#333333;stroke-width:6.24749994;stroke-linecap:round;stroke-linejoin:round;stroke-miterlimit:10;stroke-opacity:1;stroke-dasharray:none"
           id="path3009" />
      </g>
      <path
         id="path3011"
         style="fill:#fe9900;fill-opacity:1;fill-rule:nonzero;stroke:none"
         d="m 731.36513,657.78265 c 5.81125,1.749 11.68375,3.561 17.49375,5.43513 l 98.71,6.872 c -64.16125,-20.42912 -102.89625,-32.67425 -116.20375,-36.61037 -12.43125,-3.68551 -25.17625,-7.12201 -38.23375,-10.2455 -36.04875,-8.62163 -74.5325,-15.05676 -115.45375,-19.36725 l -71.15875,-186.80088 -68.7225,188.05037 c -42.92125,3.186 -82.2175,9.24613 -117.89,18.11776 -26.4275,6.55999 -77.46988,24.30262 -153.18958,53.10349 l 103.02145,-13.11962 c 53.29063,-20.30425 116.01563,-32.17487 188.04938,-35.61088 l 49.98,-132.44737 50.605,131.82287 c 57.04,2.9985 114.70375,13.24463 172.9925,30.80025" />
      <path
         id="path3013"
         style="fill:none;stroke:#333333;stroke-width:6.24749994;stroke-linecap:round;stroke-linejoin:round;stroke-miterlimit:10;stroke-opacity:1;stroke-dasharray:none"
         d="M 731.36513,657.78265 C 673.07638,640.22703 615.41263,629.9809 558.37263,626.9824 l -50.605,-131.82287 -49.98,132.44737 c -72.03375,3.43601 -134.75875,15.30663 -188.04938,35.61088 L 166.7168,676.3374 c 75.7197,-28.80087 126.76208,-46.5435 153.18958,-53.10349 35.6725,-8.87163 74.96875,-14.93176 117.89,-18.11776 l 68.7225,-188.05037 71.15875,186.80088 c 40.92125,4.31049 79.405,10.74562 115.45375,19.36725 13.0575,3.12349 25.8025,6.55999 38.23375,10.2455 13.3075,3.93612 52.0425,16.18125 116.20375,36.61037 l -98.71,-6.872 c -5.81,-1.87413 -11.6825,-3.68613 -17.49375,-5.43513 z" />
      <path
         id="path3015"
         style="fill:#fe9900;fill-opacity:1;fill-rule:nonzero;stroke:none"
         d="m 306.72263,506.53078 -28.61275,5.7475 c 7.74662,30.175 15.4315,59.78875 23.11525,88.83938 5.6225,-2.18688 11.87,-3.81063 18.74375,-4.93563 -5.24875,-20.42875 -10.05875,-40.67125 -14.4325,-60.725 15.18125,17.93 30.425,36.2975 45.85625,55.1025 6.185,-1.25 12.8075,-2.49875 19.8675,-3.74875 -5.185,-28.55125 -10.05875,-58.47625 -14.74375,-89.65125 -7.81,0.8125 -14.9325,1.74875 -21.4925,2.87375 3.0625,18.055 6.56,35.9225 10.43375,53.66625 -13.55625,-16.43125 -26.42625,-32.1125 -38.735,-47.16875" />
      <path
         id="path3017"
         style="fill:#fe9900;fill-opacity:1;fill-rule:nonzero;stroke:none"
         d="m 444.04388,506.71828 -2,-19.305 c -23.05375,2.12375 -47.60625,4.56 -73.6575,7.30875 0.875,6.06125 1.81125,12.43375 2.81125,19.18 8.68375,-1.18625 17.6175,-2.06125 26.6775,-2.74875 2.06125,24.8025 4.6225,48.85625 7.62125,72.09625 6.185,-0.4375 12.8075,-0.9375 19.7425,-1.56125 -2.3125,-23.86625 -4.18625,-48.23125 -5.56125,-73.09625 l 24.36625,-1.87375" />
      <path
         id="path3019"
         style="fill:#009999;fill-opacity:1;fill-rule:nonzero;stroke:none"
         d="m 212.44875,631.35541 -0.75,0 c -0.0625,0.0625 -0.0625,0.1875 0,0.3125 0,-0.0625 0,-0.0625 0.0625,-0.0625 0.1875,-0.0625 0.4375,-0.1875 0.6875,-0.25" />
      <path
         id="path3021"
         style="fill:#fe9900;fill-opacity:1;fill-rule:nonzero;stroke:none"
         d="m 211.69875,631.35541 0.75,0 c 6.497,-2.37401 13.43213,-4.49801 20.86675,-6.43501 -0.3125,-6.80962 -0.3125,-13.30712 0.1245,-19.49225 8.559,-3.31099 17.43063,-6.43487 26.55225,-9.37112 2.8735,4.81063 6.185,9.93363 9.871,15.36925 6.55963,-2.93663 13.55663,-5.49813 20.99188,-7.68462 -17.55575,-25.80213 -35.2365,-52.79213 -52.91663,-80.96838 -8.18462,2.0625 -16.49362,4.31125 -24.92775,6.62375 -1.062,34.17375 -1.4995,68.16 -1.312,101.95838 z m 21.80375,-77.09463 c 5.498,9.2475 11.2455,18.4925 17.30563,27.6775 -6.06013,1.68625 -11.93263,3.62375 -17.49313,5.935 -0.3745,-11.55875 -0.312,-22.74125 0.1875,-33.6125" />
      <path
         id="path3023"
         style="fill:#fe9900;fill-opacity:1;fill-rule:nonzero;stroke:none"
         d="m 653.64638,505.84328 c -4.4975,-5.185 -12.5575,-8.74625 -24.1775,-10.68375 -12.12,-2.06125 -23.6775,-4.06 -34.73625,-6.06 -4.06,25.6775 -7.55875,51.355 -10.495,77.0325 -0.6875,3.06125 -1.125,6.30875 -1.25,9.68375 6.435,1.18625 13.245,2.56125 20.4925,4.1225 1.18625,-10.62 2.68625,-20.99125 4.4975,-31.1125 2.3125,0.1875 4.935,0.625 7.81,1.25 6.1225,11.745 12.4325,23.615 18.8675,35.61125 8.43375,1.43625 17.1175,3.06 26.11375,4.8725 -7.74625,-14.1825 -15.30625,-28.11375 -22.74,-41.79625 13.05625,-3.56125 19.99125,-10.30875 20.92875,-20.24125 0.9375,-9.99625 -0.875,-17.55625 -5.31125,-22.67875 z m -32.73625,4.935 c 8.62125,1.6875 13.37,5.06125 14.24375,10.12125 0.8125,5.06125 -0.3125,8.7475 -3.435,11.05875 -3.18625,2.31125 -6.68625,3.18625 -10.49625,2.68625 -3.81125,-0.5 -7.435,-1 -10.87,-1.4375 0.87375,-8.18375 2.06125,-16.05625 3.6225,-23.615 1.9375,0.0625 4.24875,0.5 6.935,1.18625" />
      <path
         id="path3025"
         style="fill:#009999;fill-opacity:1;fill-rule:nonzero;stroke:none"
         d="m 738.05138,514.90203 c 3.435,0.8125 6.87125,1.74875 10.4325,2.68625 0.125,-0.4375 0.25,-0.8125 0.3125,-1.1875 -3.68625,-0.99875 -7.2475,-1.93625 -10.745,-2.7475 -17.30625,-4.43625 -34.425,-7.8725 -51.2925,-10.37125 -5.4975,29.05 -10.74625,58.53875 -15.80625,88.465 0.0625,0 0.125,0 0.1875,0.0625 4.9975,-29.55125 10.18375,-58.6025 15.61875,-87.27875 16.8675,2.5 33.98625,5.935 51.2925,10.37125" />
      <path
         id="path3027"
         style="fill:#fe9900;fill-opacity:1;fill-rule:nonzero;stroke:none"
         d="m 748.48388,517.58828 c -3.56125,-0.9375 -6.9975,-1.87375 -10.4325,-2.68625 -17.30625,-4.43625 -34.425,-7.87125 -51.2925,-10.37125 -5.435,28.67625 -10.62125,57.7275 -15.61875,87.27875 19.43,3.31 39.11,7.74625 58.91375,13.24412 0.8125,-5.12287 1.81125,-10.05912 2.99875,-14.80662 0,-0.25 0.0625,-0.5 0.125,-0.6875 -12.87,-3.56125 -25.3025,-6.56 -37.2975,-8.87125 0.0625,-0.4375 0.125,-0.8125 0.1875,-1.24875 -0.0625,0 -0.125,0 -0.1875,0 1.06125,-7.7475 2.43625,-15.1825 4.12375,-22.36625 10.37,1.87375 20.99125,4.2475 31.92375,7.18375 0.9375,0.25 1.9375,0.5 2.87375,0.8125 l 0.6875,0.125 c 0.75,-5.685 1.8125,-10.99625 3.18625,-15.86875 -1.06125,-0.3125 -1.93625,-0.625 -2.68625,-0.8125 -11.12,-2.99875 -21.99125,-5.3725 -32.55,-7.12125 0.0625,-0.4375 0.0625,-0.8125 0.125,-1.25 -0.0625,0 -0.0625,0 -0.125,0 0.6875,-5.56 1.75,-10.8075 3.0625,-15.61875 9.87125,1.74875 19.99125,3.93625 30.425,6.6225 2.62375,0.6875 5.3725,1.43625 8.30875,2.31125 0.875,-5.435 1.93625,-10.74625 3.24875,-15.86875" />
      <path
         id="path3029"
         style="fill:#009999;fill-opacity:1;fill-rule:nonzero;stroke:none"
         d="m 735.98888,548.51328 c 0.75,0.1875 1.625,0.5 2.68625,0.8125 0.125,-0.375 0.25,-0.75 0.375,-1.125 -1.18625,-0.37375 -2.24875,-0.68625 -3.06125,-0.93625 -11.0575,-2.99875 -21.86625,-5.3725 -32.425,-7.1225 -0.0625,0.4375 -0.0625,0.8125 -0.125,1.25 10.55875,1.74875 21.43,4.1225 32.55,7.12125" />
      <path
         id="path3031"
         style="fill:#009999;fill-opacity:1;fill-rule:nonzero;stroke:none"
         d="m 731.74013,565.25703 0,-0.0625 -0.3125,-0.0625 c 0.0625,0 0.1875,0.0625 0.3125,0.125" />
      <path
         id="path3033"
         style="fill:#009999;fill-opacity:1;fill-rule:nonzero;stroke:none"
         d="m 733.17763,589.55953 c 0.0625,-0.375 0.1875,-0.75 0.375,-1.0625 l 0,-0.0625 c -12.9325,-3.6225 -25.4275,-6.62125 -37.485,-8.995 -0.0625,0.43625 -0.125,0.81125 -0.1875,1.24875 11.995,2.31125 24.4275,5.31 37.2975,8.87125" />
      <path
         id="path3035"
         style="fill:#fe9900;fill-opacity:1;fill-rule:nonzero;stroke:none"
         d="m 801.65013,531.64578 c -1.12375,-0.4375 -1.87375,-0.625 -2.31125,-0.625 -11.495,-3.31125 -21.42875,-3.18625 -29.73875,0.25 -8.80875,2.56125 -13.86875,8.18375 -15.30625,16.93 -1.68625,5.81125 -1.37375,11.37125 1,16.74375 2.06125,4.56125 6.4975,9.30875 13.3075,14.245 2.31125,1.31125 5.435,2.9975 9.30875,5.1225 2.68625,1.4375 5.81,3.06125 9.30875,4.81 1.99875,0.9375 3.8725,2.5625 5.56,4.87375 1.3125,1.43625 1.8125,3.49875 1.5625,6.1225 -2.4375,5.12288 -8.56,6.68438 -18.24375,4.74788 -5.435,-1.687 -10.495,-4.1235 -15.30625,-7.24663 -5.185,-3.74875 -9.49625,-7.9975 -12.8075,-12.6825 -0.9375,-0.5625 -1.68625,-0.75 -2.12375,-0.625 -1.81125,6.685 -3.24875,13.6825 -4.43625,20.99163 3.56125,2.561 7.9975,5.43512 13.245,8.49662 4.43625,2.249 10.37125,4.5605 17.74375,6.9345 3.81,0.562 7.55875,1.312 11.245,2.12413 0.8125,-0.125 1.81125,-0.0625 3.06125,0.125 5.935,-0.125 11.37,-0.93713 16.36875,-2.49913 8.12125,-3.936 13.495,-10.121 16.18,-18.43012 1.1875,-6.62263 0.875,-11.93263 -1.06125,-15.99388 -2.56125,-4.8725 -6.6225,-8.99625 -12.3075,-12.3075 -3.43625,-2.43625 -6.31,-4.1225 -8.685,-5.06 -3.185,-1.875 -6.06,-3.31125 -8.62125,-4.31125 -4.7475,-2.81125 -7.68375,-4.935 -8.80875,-6.3725 -1.74875,-2.31125 -2.18625,-4.31 -1.31125,-6.06 1.06125,-4.56 5.2475,-6.4975 12.495,-5.81 8.80875,1.3125 15.68125,3.87375 20.55375,7.7475 4.18625,2.68625 7.93375,6.06 11.37,10.12 0.25,-0.31125 0.875,-0.18625 1.875,0.375 1.49875,-7.18375 3.24875,-13.9325 5.31,-20.24125 -4.68625,-3.06125 -9.30875,-5.56125 -13.99375,-7.435 -4.99875,-2.43625 -9.80875,-4.12375 -14.4325,-5.06" />
      <path
         id="path3037"
         style="fill:none;stroke:#333333;stroke-width:6.24749994;stroke-linecap:round;stroke-linejoin:round;stroke-miterlimit:10;stroke-opacity:1;stroke-dasharray:none"
         d="m 738.05138,514.90203 c -17.30625,-4.43625 -34.425,-7.87125 -51.2925,-10.37125 -5.435,28.67625 -10.62125,57.7275 -15.61875,87.27875 -0.0625,0.37375 -0.125,0.74875 -0.1875,1.18625 19.4925,3.31125 39.1725,7.74688 59.10125,13.30738 0.8125,-5.123 1.81125,-10.05863 2.99875,-14.80613 0.0625,-0.6875 0.1875,-1.25 0.5,-1.75 l 0,-0.0625 c -0.125,-0.0625 -0.25,-0.0625 -0.375,-0.125 -12.87,-3.56125 -25.3025,-6.56 -37.2975,-8.87125 0.0625,-0.4375 0.125,-0.8125 0.1875,-1.24875 1.06125,-7.31 2.37375,-14.3075 3.93625,-21.1175 10.37125,1.875 20.99125,4.24875 31.92375,7.185 0.9375,0.25 1.9375,0.5 2.875,0.8125 l 0.68625,0.0612 c 0.8125,-6.1225 2,-11.745 3.56125,-16.93 -0.125,-0.0625 -0.25,-0.0625 -0.375,-0.125 -1.06125,-0.3125 -1.93625,-0.625 -2.68625,-0.8125 -11.12,-2.99875 -21.99125,-5.3725 -32.55,-7.12125 0.0625,-0.4375 0.0625,-0.8125 0.125,-1.25 0.6875,-5.1225 1.6875,-9.93375 2.9375,-14.36875 9.87125,1.74875 19.99125,3.93625 30.425,6.62125 2.62375,0.6875 5.3725,1.4375 8.30875,2.3125 0.9375,-5.8725 2.12375,-11.55875 3.56125,-17.05625 -0.0625,-0.0625 -0.1875,-0.0625 -0.3125,-0.0625 -3.56125,-0.9375 -6.9975,-1.87375 -10.4325,-2.68625 z" />
      <path
         id="path3039"
         style="fill:none;stroke:#333333;stroke-width:6.24749994;stroke-linecap:round;stroke-linejoin:round;stroke-miterlimit:10;stroke-opacity:1;stroke-dasharray:none"
         d="m 442.04388,487.41328 c -23.05375,2.12375 -47.60625,4.56 -73.6575,7.30875 0.875,6.06125 1.81125,12.43375 2.81125,19.18 8.68375,-1.18625 17.6175,-2.06125 26.6775,-2.74875 2.06125,24.8025 4.6225,48.85625 7.62125,72.09625 6.185,-0.4375 12.8075,-0.9375 19.7425,-1.56125 -2.3125,-23.86625 -4.18625,-48.23125 -5.56125,-73.09625 l 24.36625,-1.87375 -2,-19.305 z" />
      <path
         id="path3041"
         style="fill:none;stroke:#333333;stroke-width:6.24749994;stroke-linecap:round;stroke-linejoin:round;stroke-miterlimit:10;stroke-opacity:1;stroke-dasharray:none"
         d="m 620.91013,510.77828 c 8.62125,1.6875 13.37,5.06125 14.24375,10.12125 0.8125,5.06125 -0.3125,8.7475 -3.435,11.05875 -3.18625,2.31125 -6.68625,3.18625 -10.49625,2.68625 -3.81125,-0.5 -7.435,-1 -10.87,-1.4375 0.87375,-8.18375 2.06125,-16.05625 3.6225,-23.615 1.9375,0.0625 4.24875,0.5 6.935,1.18625 z" />
      <path
         id="path3043"
         style="fill:none;stroke:#333333;stroke-width:6.24749994;stroke-linecap:round;stroke-linejoin:round;stroke-miterlimit:10;stroke-opacity:1;stroke-dasharray:none"
         d="m 799.33888,531.02078 c -11.495,-3.31125 -21.42875,-3.18625 -29.73875,0.25 -8.80875,2.56125 -13.86875,8.18375 -15.30625,16.93 -1.68625,5.81125 -1.37375,11.37125 1,16.74375 2.06125,4.56125 6.4975,9.30875 13.3075,14.245 2.31125,1.31125 5.435,2.99875 9.30875,5.1225 2.68625,1.4375 5.81,3.06125 9.30875,4.81 1.99875,0.9375 3.8725,2.5625 5.56,4.87375 1.3125,1.43625 1.8125,3.49875 1.5625,6.1225 -2.4375,5.12288 -8.56,6.68438 -18.24375,4.74788 -5.435,-1.687 -10.495,-4.1235 -15.30625,-7.24663 -5.185,-3.74875 -9.49625,-7.9975 -12.8075,-12.6825 -0.9375,-0.5625 -1.68625,-0.75 -2.12375,-0.625 -1.81125,6.685 -3.24875,13.6825 -4.43625,20.99163 3.56125,2.561 7.9975,5.43512 13.245,8.49662 4.43625,2.249 10.37125,4.5605 17.74375,6.9345 3.81,0.562 7.55875,1.312 11.245,2.12413 0.8125,-0.125 1.81125,-0.0625 3.06125,0.125 5.935,-0.125 11.37,-0.93713 16.36875,-2.49913 8.12125,-3.936 13.49375,-10.121 16.18,-18.43012 1.1875,-6.62263 0.875,-11.93263 -1.06125,-15.99388 -2.56125,-4.8725 -6.6225,-8.99625 -12.3075,-12.3075 -3.43625,-2.43625 -6.31,-4.1225 -8.685,-5.06 -3.185,-1.875 -6.06,-3.31125 -8.62125,-4.31125 -4.7475,-2.81125 -7.68375,-4.935 -8.80875,-6.3725 -1.74875,-2.31125 -2.18625,-4.31 -1.31125,-6.06 1.06125,-4.56 5.2475,-6.4975 12.49375,-5.81 8.81,1.3125 15.6825,3.87375 20.555,7.7475 4.18625,2.68625 7.93375,6.06 11.37,10.12 0.25,-0.31125 0.875,-0.18625 1.875,0.375 1.49875,-7.18375 3.24875,-13.93125 5.31,-20.24125 -4.68625,-3.06125 -9.30875,-5.56125 -13.99375,-7.435 -4.99875,-2.43625 -9.80875,-4.12375 -14.4325,-5.06 -1.12375,-0.4375 -1.87375,-0.625 -2.31125,-0.625 z" />
      <path
         id="path3045"
         style="fill:none;stroke:#333333;stroke-width:6.24749994;stroke-linecap:round;stroke-linejoin:round;stroke-miterlimit:10;stroke-opacity:1;stroke-dasharray:none"
         d="m 278.10988,512.27828 c 7.74662,30.175 15.4315,59.78875 23.11525,88.83938 5.6225,-2.18688 11.87,-3.81063 18.74375,-4.93563 -5.24875,-20.42875 -10.05875,-40.67125 -14.4325,-60.725 15.18125,17.93 30.425,36.2975 45.85625,55.1025 6.185,-1.25 12.8075,-2.49875 19.8675,-3.74875 -5.185,-28.55125 -10.05875,-58.47625 -14.74375,-89.65125 -7.81,0.8125 -14.9325,1.74875 -21.4925,2.87375 3.0625,18.055 6.56,35.9225 10.43375,53.66625 -13.55625,-16.43125 -26.42625,-32.1125 -38.735,-47.16875 l -28.61275,5.7475 z" />
      <path
         id="path3047"
         style="fill:none;stroke:#333333;stroke-width:6.24749994;stroke-linecap:round;stroke-linejoin:round;stroke-miterlimit:10;stroke-opacity:1;stroke-dasharray:none"
         d="m 211.69875,631.66791 c 0,-0.0625 0,-0.0625 0.0625,-0.0625 0.1875,-0.0625 0.4375,-0.1875 0.6875,-0.25 6.497,-2.37401 13.43213,-4.49801 20.86675,-6.43501 -0.3125,-6.80962 -0.3125,-13.30712 0.1245,-19.49225 8.559,-3.31099 17.43063,-6.43487 26.55225,-9.37112 2.8735,4.81063 6.185,9.93363 9.871,15.36925 6.55963,-2.93663 13.55663,-5.49813 20.99188,-7.68462 -17.55575,-25.80213 -35.2365,-52.79213 -52.91663,-80.96838 -8.18462,2.0625 -16.49362,4.31125 -24.92775,6.62375 -1.062,34.17375 -1.4995,68.16 -1.312,101.95838 -0.0625,0.0625 -0.0625,0.1875 0,0.3125 z" />
      <path
         id="path3049"
         style="fill:none;stroke:#333333;stroke-width:6.24749994;stroke-linecap:round;stroke-linejoin:round;stroke-miterlimit:10;stroke-opacity:1;stroke-dasharray:none"
         d="m 250.80813,581.93828 c -6.06013,1.68625 -11.93263,3.62375 -17.49263,5.935 -0.375,-11.55875 -0.3125,-22.74125 0.187,-33.6125 5.498,9.2475 11.2455,18.4925 17.30563,27.6775 z" />
      <path
         id="path3051"
         style="fill:none;stroke:#333333;stroke-width:6.24749994;stroke-linecap:round;stroke-linejoin:round;stroke-miterlimit:10;stroke-opacity:1;stroke-dasharray:none"
         d="m 629.46888,495.15953 c -12.12,-2.06125 -23.6775,-4.06 -34.73625,-6.06 -4.06,25.6775 -7.55875,51.355 -10.495,77.0325 -0.6875,3.06125 -1.125,6.30875 -1.25,9.68375 6.435,1.18625 13.245,2.56125 20.4925,4.1225 1.18625,-10.62 2.68625,-20.99125 4.4975,-31.1125 2.3125,0.1875 4.935,0.625 7.81,1.25 6.1225,11.745 12.4325,23.615 18.8675,35.61125 8.43375,1.43625 17.1175,3.06 26.11375,4.8725 -7.74625,-14.1825 -15.30625,-28.11375 -22.74,-41.79625 13.05625,-3.56125 19.99125,-10.30875 20.92875,-20.24125 0.9375,-9.99625 -0.875,-17.55625 -5.31125,-22.67875 -4.4975,-5.185 -12.5575,-8.74625 -24.1775,-10.68375 z" />
      <g
         id="g3053"
         transform="translate(-0.6887299,0)">
        <g
           transform="matrix(1.6349352,0,0,1.6349352,-347.72534,-410.79901)"
           id="g3055">
          <path
             id="path3057"
             style="fill:#333333;fill-opacity:1;fill-rule:nonzero;stroke:none"
             d="m 679.69888,678.3994 c 0,-1 0.125,-1.8745 0.4375,-2.624 0.3125,-0.75 0.6875,-1.37462 1.125,-1.81212 0.5625,-0.4995 1.12375,-0.8745 1.74875,-1.1245 0.625,-0.25 1.3125,-0.375 2.12375,-0.375 0.6875,0 1.3125,0.0625 1.9375,0.25 0.5625,0.1875 1.125,0.4375 1.56125,0.6875 0.375,0.1875 0.75,0.4995 1.1875,0.812 0.4375,0.3125 0.75,0.5 0.9375,0.68712 l 0.43625,0 0,-4.24812 c -1.06125,-0.5 -1.99875,-0.8745 -2.935,-1.1245 -0.9375,-0.3125 -2.1875,-0.4375 -3.74875,-0.4375 -2.93625,0 -5.24875,0.875 -6.935,2.5615 -1.6875,1.687 -2.5625,3.99862 -2.5625,6.81012 0,3.06101 0.875,5.3725 2.5625,7.0595 1.68625,1.624 3.99875,2.4365 6.81,2.4365 1.24875,0 2.49875,-0.125 3.74875,-0.4375 1.31125,-0.3125 2.31125,-0.687 3.1225,-0.9995 l 0,-8.934 -7.93375,0 0,3.43601 3.49875,0 0,3.5615 c -0.1875,0 -0.375,0 -0.5625,0 -0.1875,0.0625 -0.375,0.0625 -0.5625,0.0625 -1.81125,0 -3.31125,-0.5 -4.3725,-1.562 -1.0625,-0.9995 -1.625,-2.5615 -1.625,-4.68551" />
          <path
             id="path3059"
             style="fill:#333333;fill-opacity:1;fill-rule:nonzero;stroke:none"
             d="m 661.20638,669.40278 -5.6225,0 0,18.18012 4.18625,0 0,-12.6825 6.99625,12.6825 4.37375,0 0,-18.18012 -4.12375,0 0,10.43313 -5.81,-10.43313" />
          <path
             id="path3061"
             style="fill:#333333;fill-opacity:1;fill-rule:nonzero;stroke:none"
             d="m 651.33513,672.58878 0,-3.186 -9.80875,0 0,3.186 2.625,0 0,11.80812 -2.625,0 0,3.186 9.80875,0 0,-3.186 -2.62375,0 0,-11.80812 2.62375,0" />
          <path
             id="path3063"
             style="fill:#333333;fill-opacity:1;fill-rule:nonzero;stroke:none"
             d="m 623.90888,671.65178 c -1.68625,1.687 -2.56125,3.99862 -2.56125,6.81012 0,3.06101 0.875,5.3725 2.56125,7.0595 1.68625,1.624 3.99875,2.4365 6.81,2.4365 1.25,0 2.49875,-0.125 3.74875,-0.4375 1.31125,-0.3125 2.31125,-0.687 3.12375,-0.9995 l 0,-8.934 -7.935,0 0,3.43651 3.49875,0 0,3.561 c -0.1875,0 -0.375,0 -0.5625,0 -0.1875,0.0625 -0.37375,0.0625 -0.56125,0.0625 -1.8125,0 -3.3125,-0.5 -4.37375,-1.562 -1.0625,-0.9995 -1.625,-2.5615 -1.625,-4.68551 0,-1 0.125,-1.8745 0.4375,-2.624 0.3125,-0.75 0.6875,-1.37462 1.125,-1.81212 0.5625,-0.4995 1.12375,-0.8745 1.74875,-1.1245 0.625,-0.25 1.3125,-0.3745 2.125,-0.3745 0.6875,0 1.31125,0.062 1.93625,0.2495 0.5625,0.1875 1.125,0.4375 1.56125,0.6875 0.375,0.1875 0.75,0.4995 1.1875,0.812 0.4375,0.3125 0.75,0.5 0.9375,0.6875 l 0.4375,0 0,-4.2485 c -1.0625,-0.5 -2,-0.8745 -2.93625,-1.1245 -0.9375,-0.3125 -2.1875,-0.4375 -3.74875,-0.4375 -2.93625,0 -5.24875,0.875 -6.935,2.5615" />
          <path
             id="path3065"
             style="fill:#333333;fill-opacity:1;fill-rule:nonzero;stroke:none"
             d="m 613.22513,669.40278 -4.9975,0 -6.1225,18.18012 4.56125,0 1.12375,-3.686 5.7475,0 1.125,3.686 4.685,0 -6.1225,-18.18012 z m -0.68625,11.18313 -3.74875,0 1.87375,-5.99763 1.875,5.99763" />
          <path
             id="path3067"
             style="fill:#333333;fill-opacity:1;fill-rule:nonzero;stroke:none"
             d="m 585.73638,669.40278 -5.2475,0 0,18.18012 4.31,0 0,-12.0575 3.3125,7.80951 3.1225,0 3.24875,-7.80951 0,12.0575 4.56125,0 0,-18.18012 -5.2475,0 -3.99875,8.99662 -4.06125,-8.99662" />
          <path
             id="path3069"
             style="fill:#333333;fill-opacity:1;fill-rule:nonzero;stroke:none"
             d="m 576.24013,672.58878 0,-3.186 -9.8075,0 0,3.186 2.6225,0 0,11.80812 -2.6225,0 0,3.186 9.8075,0 0,-3.186 -2.62375,0 0,-11.80812 2.62375,0" />
        </g>
        <g
           transform="matrix(1.6349352,0,0,1.6349352,-297.72534,-410.79901)"
           id="g3071">
          <path
             id="path3073"
             style="fill:#333333;fill-opacity:1;fill-rule:nonzero;stroke:none"
             d="m 441.04388,669.40278 -5.6225,0 0,18.18012 4.18625,0 0,-12.6825 6.9975,12.6825 4.3725,0 0,-18.18012 -4.1225,0 0,10.43313 -5.81125,-10.43313" />
          <path
             id="path3075"
             style="fill:#333333;fill-opacity:1;fill-rule:nonzero;stroke:none"
             d="m 431.48638,678.5244 c 0,-2.9365 -0.8125,-5.24812 -2.375,-6.93512 -1.56125,-1.6865 -3.685,-2.5615 -6.435,-2.5615 -2.74875,0 -4.8725,0.875 -6.43375,2.5615 -1.5625,1.687 -2.375,3.99862 -2.375,6.93512 0,2.87351 0.8125,5.185 2.375,6.872 1.56125,1.687 3.685,2.5615 6.43375,2.5615 2.75,0 4.87375,-0.8125 6.435,-2.499 1.5625,-1.687 2.375,-3.99849 2.375,-6.9345 z m -7.2475,-5.74812 c 0.4375,0.1875 0.875,0.5625 1.3125,1.062 0.375,0.5 0.68625,1.12462 0.87375,1.87462 0.25,0.812 0.375,1.6865 0.375,2.749 0,1.18701 -0.125,2.12401 -0.375,2.81101 -0.1875,0.6875 -0.49875,1.31199 -0.87375,1.81199 -0.375,0.4995 -0.8125,0.8745 -1.3125,1.1245 -0.5,0.1875 -1,0.3125 -1.5625,0.3125 -0.56125,0 -1.06125,-0.125 -1.56125,-0.3125 -0.4375,-0.1875 -0.875,-0.5625 -1.3125,-1.062 -0.375,-0.5 -0.6875,-1.12449 -0.875,-1.87449 -0.24875,-0.7495 -0.37375,-1.6865 -0.37375,-2.74851 0,-1.0625 0.125,-1.9995 0.37375,-2.8115 0.25,-0.81212 0.5625,-1.43712 0.9375,-1.87462 0.4375,-0.4995 0.875,-0.8745 1.3125,-1.062 0.4375,-0.1875 0.9375,-0.312 1.49875,-0.312 0.5625,0 1.0625,0.1245 1.5625,0.312" />
          <path
             id="path3077"
             style="fill:#333333;fill-opacity:1;fill-rule:nonzero;stroke:none"
             d="m 407.55763,670.40228 c -0.625,-0.437 -1.31125,-0.687 -2.06125,-0.812 -0.75,-0.125 -1.62375,-0.1875 -2.62375,-0.1875 l -7.31,0 0,18.18012 4.56125,0 0,-6.68449 1.62375,0 5.06,6.68449 5.56125,0 -6.1225,-7.74699 c 1.06125,-0.4995 1.87375,-1.187 2.49875,-2.06151 0.625,-0.8745 0.9375,-1.999 0.9375,-3.37362 0,-0.9995 -0.1875,-1.812 -0.5625,-2.4365 -0.375,-0.625 -0.875,-1.1245 -1.5625,-1.562 z m -4.4975,7.12212 c -0.4375,0.0625 -1,0.125 -1.625,0.125 l -1.31125,0 0,-4.87312 1.49875,0 c 0.5625,0 1,0 1.3125,0 0.3125,0.0625 0.625,0.125 0.9375,0.25 0.43625,0.1875 0.68625,0.4375 0.87375,0.7495 0.1875,0.3125 0.25,0.75 0.25,1.18712 0,0.5625 -0.0625,0.9375 -0.1875,1.2495 -0.125,0.3125 -0.3125,0.625 -0.625,0.8125 -0.31125,0.25 -0.68625,0.437 -1.12375,0.4995" />
          <path
             id="path3079"
             style="fill:#333333;fill-opacity:1;fill-rule:nonzero;stroke:none"
             d="m 387.06638,672.90128 5.3725,0 0,-3.4985 -15.30625,0 0,3.4985 5.3725,0 0,14.68162 4.56125,0 0,-14.68162" />
          <path
             id="path3081"
             style="fill:#333333;fill-opacity:1;fill-rule:nonzero;stroke:none"
             d="m 372.32263,686.1459 c 1.31125,-1.187 1.93625,-2.936 1.93625,-5.12249 l 0,-11.62063 -4.6225,0 0,11.37063 c 0,1.312 -0.25,2.249 -0.6875,2.81099 -0.5,0.625 -1.25,0.9375 -2.3125,0.9375 -1.06125,0 -1.87375,-0.3125 -2.31125,-0.9375 -0.5,-0.62449 -0.75,-1.56149 -0.75,-2.81099 l 0,-11.37063 -4.56,0 0,11.62063 c 0,2.249 0.6875,3.99799 1.99875,5.18499 1.3125,1.187 3.18625,1.7495 5.6225,1.7495 2.5,0 4.37375,-0.625 5.68625,-1.812" />
          <path
             id="path3083"
             style="fill:#333333;fill-opacity:1;fill-rule:nonzero;stroke:none"
             d="m 347.20763,679.52391 7.12125,0 0,-3.43601 -7.12125,0 0,-3.18662 7.74625,0 0,-3.4985 -12.3075,0 0,18.18012 12.3075,0 0,-3.436 -7.74625,0 0,-4.62299" />
          <path
             id="path3085"
             style="fill:#333333;fill-opacity:1;fill-rule:nonzero;stroke:none"
             d="m 337.71138,669.40278 -4.12375,0 0,10.43313 -5.81,-10.43313 -5.6225,0 0,18.18012 4.185,0 0,-12.6825 6.9975,12.6825 4.37375,0 0,-18.18012" />
        </g>
      </g>
    </g>
  </g>
</svg>
